<svg xmlns="http://www.w3.org/2000/svg" width="240" height="240" viewBox="14.5 716.5 240 240" enable-background="new 14.5 716.5 240 240"><circle fill="#D7D7D7" cx="141.049" cy="769.794" r="2.69"/><circle opacity=".45" fill="#D7D7D7" enable-background="new" cx="152.892" cy="765.167" r="3.858"/><circle opacity=".1" fill="#D7D7D7" enable-background="new" cx="164.733" cy="760.808" r="4.97"/><ellipse fill="#D7D7D7" cx="79.283" cy="780.042" rx="51.476" ry="1.231"/><path opacity=".6" fill="#fff" enable-background="new" d="M96.614 740.665l2.086-2.665h-2.086z"/><path opacity=".1" enable-background="new" d="M99.624 752.981l-24.223 6.832 18.324-2.639v12.576h-65.994l-3.416-7.452-6.056.775-.207 1.712 5.487 12.73h97.203l11.801-6.211.84-.987-36.709.676z"/><path fill="#FCC23F" d="M142.791 739.316l-28.881-5.59s-9.971-1.2-17.295-1.765c-7.324-.563-16.789.542-16.789.542l-.115.028c1.782.204 8.875 1.066 12.927 2.281 4.658 1.396 8.695 4.503 8.695 4.503l-36.49 15.062-12.732-6.986 4.834-.008.108-5.807.025-1.328-2.294 2.516-.978 1.07-4.795 2.137-1.095.487-4.969-.154-27.173 13.197 2.276 5.283.207-1.711 6.057-.775 3.416 7.452h65.993v-12.576l-18.323 2.64 24.223-6.832-2.95 18.012 36.709-.676 6.303-7.398-2.598-8.834 5.704-14.77zm-63.508 15.683l28.726-11.956 17.702.953-46.428 11.003z"/><path fill="#FFAB24" d="M125.711 748.167l17.08-8.851-5.702 14.768 2.598 8.834z"/><path fill="#FFDE39" d="M140.984 743.996l-8.441 5.568 4.546 4.52z"/><path opacity=".1" enable-background="new" d="M79.283 732.484l.427.048.115-.028-.542-.02z"/><path d="M79.904 732.484l-.078.02"/><path fill="#C1F6FD" d="M52.11 747.392l12.732 6.986 36.49-15.062s-4.037-3.105-8.695-4.503c-4.051-1.216-11.144-2.077-12.927-2.281-7.357 1.633-16.314 5.78-22.657 9.044l-.108 5.807-4.835.009z"/><path fill="#BEF7FE" d="M54.785 742.764c-3.487 1.854-5.769 3.206-5.772 3.208l4.796-2.137.976-1.071z"/><path fill="#FFAB24" d="M99.624 752.981l-24.223 6.832 18.324-2.639v12.576h-65.994l-3.416-7.452-7.029.711.766 1.776 5.487 12.73h97.203l12.641-7.198-36.455-.877z"/><circle fill="#353336" cx="39.921" cy="767.188" r="12.189"/><circle fill="#F4F4F4" cx="39.92" cy="767.188" r="7.298"/><circle fill="#353336" cx="43.802" cy="767.222" r="1.63"/><circle fill="#353336" cx="36.039" cy="767.222" r="1.63"/><circle fill="#353336" cx="39.92" cy="771.07" r="1.63"/><circle fill="#353336" cx="39.92" cy="763.307" r="1.63"/><circle fill="#353336" cx="114.687" cy="767.188" r="12.189"/><circle fill="#F4F4F4" cx="114.687" cy="767.188" r="7.298"/><g fill="#353336"><circle cx="118.568" cy="767.222" r="1.63"/><circle cx="110.804" cy="767.222" r="1.63"/></g><circle fill="#353336" cx="114.687" cy="771.07" r="1.63"/><circle fill="#353336" cx="114.687" cy="763.307" r="1.63"/><path fill="#FFD252" d="M108.009 743.043l17.701.953 16.692-4.44-.569-.424-27.924-5.405s-9.971-1.2-17.295-1.765c-7.324-.563-16.789.542-16.789.542l-.115.028c1.782.204 8.875 1.066 12.927 2.281 4.658 1.397 8.695 4.503 8.695 4.503l-36.49 15.062-12.732-6.987 2.148-1.241 2.686 1.232.108-5.807.025-1.328-2.294 2.516-.978 1.07-4.795 2.137-1.095.487-4.969-.154-26.729 12.981-.057.216 25.388-8.782 24.456 7.252 13.313-2.987-.036.015.541-.128h.002l45.885-10.874-17.7-.953z"/><path opacity=".6" fill="#fff" enable-background="new" d="M15.775 759.502l27.173-13.197 15.232 9.165-16.901-4.741-25.504 8.773"/><path opacity=".6" fill="#fff" enable-background="new" d="M55.982 749.436l2.188 1.164 16.758-16.77-4.192 1.398zM84.728 733.255l-19.886 21.123 14.984-6.184 12.086-13.608z"/><path fill="#D4F9FD" d="M47.917 746.459"/><path opacity=".6" fill="#fff" enable-background="new" d="M76.088 755.953l46.429-11.003-17.703-.954z"/><g fill="#eee"><path d="M194.978 752.269s0 .728-.026.979c-.532 12.236-.98 16.353-2.045 17.641-.505.699-1.035.951-1.819 1.008-.7.084-1.85.084-3.052 0-.028-.562-.196-1.372-.504-1.904 1.202.112 2.296.141 2.8.141.42 0 .699-.084.952-.477.812-.924 1.314-4.844 1.792-15.568h-4.146c-.336 7-1.344 14.057-4.928 18.396-.336-.392-.98-.952-1.484-1.204 3.36-3.92 4.284-10.612 4.592-17.192h-3.976v-1.819h4.032c.026-1.736.056-3.444.056-5.068h1.848c0 1.624-.026 3.332-.084 5.068h5.992zm11.732-1.597v21.393h-1.934v-1.876h-5.738v2.072h-1.85v-21.589h9.522zm-1.932 17.724v-15.933h-5.739v15.933h5.739zM228.082 757.319c-.841 2.928-2.04 5.785-3.602 8.257.696 2.186 1.656 3.434 2.761 3.434.601 0 .863-1.08 1.009-3.938.312.336.864.672 1.248.792-.266 3.576-.792 4.681-2.4 4.681-1.607 0-2.809-1.247-3.695-3.456-1.057 1.417-2.257 2.688-3.576 3.696-.24-.337-.744-.815-1.128-1.081 1.536-1.128 2.928-2.615 4.104-4.319-.721-2.544-1.177-5.904-1.417-9.721h-13.488v-1.319h5.881v-2.16h-4.633v-1.32h4.633v-1.968h1.535v1.968h4.272v1.32h-4.272v2.16h6.024c-.096-1.729-.144-3.553-.144-5.4h1.56c0 1.896.024 3.72.097 5.4h6.384v1.319h-6.336c.191 3.097.553 5.784 1.032 7.945 1.151-2.064 2.088-4.369 2.736-6.697l1.415.407zm-11.953 10.129v3.217h-1.513v-3.071c-2.353.264-4.561.479-6.288.672l-.168-1.488c1.704-.145 3.96-.336 6.456-.576v-2.521h-3.168c-1.009 0-1.704.145-1.92.336-.072-.336-.288-1.08-.48-1.487.336-.072.696-.552 1.08-1.201.192-.312.553-1.008.96-1.872h-2.832v-1.319h3.433c.313-.769.647-1.584.889-2.376l1.561.407c-.24.673-.504 1.32-.815 1.969h7.225v1.319h-7.824c-.527 1.032-1.057 1.992-1.607 2.833h3.504v-2.041h1.513v2.041h3.888v1.393h-3.888v2.377l4.44-.408v1.32l-4.446.476zm10.969-14.161c-.552-.888-1.824-2.184-2.952-3.071l1.128-.769c1.104.84 2.425 2.088 3 2.977l-1.176.863zM250.659 754.32v9.263h-1.359v-1.16h-5.941v6.521h-1.381v-6.521h-5.921v1.26h-1.32v-9.361h7.241v-3.58h1.381v3.58l7.3-.002zm-8.682 6.783v-5.48h-5.921v5.48h5.921zm7.322 0v-5.48h-5.941v5.48h5.941z"/></g><circle opacity=".1" fill="#D7D7D7" enable-background="new" cx="140.789" cy="851.032" r="2.69"/><circle fill="#D7D7D7" cx="152.632" cy="846.405" r="3.858"/><circle opacity=".45" fill="#D7D7D7" enable-background="new" cx="164.474" cy="842.046" r="4.97"/><ellipse fill="#D7D7D7" cx="79.023" cy="861.279" rx="51.476" ry="1.231"/><path opacity=".6" fill="#fff" enable-background="new" d="M96.354 819.903l2.086-2.665h-2.086z"/><path opacity=".1" enable-background="new" d="M99.364 832.219l-24.222 6.832 18.323-2.64v12.577h-65.993l-3.416-7.453-6.056.776-.208 1.712 5.487 12.729h97.203l11.801-6.211.84-.986-36.709.675z"/><path fill="#FCC23F" d="M142.531 818.555l-28.881-5.591s-9.971-1.2-17.295-1.764c-7.324-.564-16.789.542-16.789.542l-.115.027c1.782.204 8.875 1.066 12.927 2.281 4.658 1.397 8.695 4.504 8.695 4.504l-36.49 15.062-12.732-6.987 4.834-.008.108-5.807.025-1.327-2.294 2.515-.978 1.071-4.795 2.136-1.095.488-4.969-.155-27.171 13.198 2.276 5.283.207-1.711 6.057-.776 3.416 7.453h65.993v-12.577l-18.323 2.641 24.223-6.832-2.95 18.012 36.709-.676 6.303-7.398-2.598-8.834 5.702-14.77zm-63.508 15.682l28.726-11.956 17.702.953-46.428 11.003z"/><path fill="#FFAB24" d="M125.451 827.405l17.08-8.85-5.702 14.767 2.598 8.834z"/><path fill="#FFDE39" d="M140.725 823.234l-8.442 5.569 4.546 4.519z"/><path opacity=".1" enable-background="new" d="M79.023 813.722l.427.048.115-.027-.542-.021z"/><path d="M79.645 813.722l-.078.021"/><path fill="#C1F6FD" d="M51.851 826.629l12.732 6.987 36.49-15.062s-4.037-3.105-8.695-4.504c-4.051-1.216-11.144-2.077-12.927-2.281-7.357 1.633-16.314 5.78-22.657 9.045l-.108 5.806-4.835.009z"/><path fill="#BEF7FE" d="M54.525 822.001c-3.487 1.854-5.769 3.206-5.772 3.208l4.796-2.136.976-1.072z"/><path fill="#FFAB24" d="M99.364 832.219l-24.222 6.832 18.323-2.64v12.577h-65.993l-3.416-7.453-7.03.711.766 1.777 5.487 12.729h97.203l12.641-7.197-36.455-.877z"/><path fill="#FFD252" d="M107.75 822.281l17.701.953 16.692-4.441-.569-.424-27.924-5.405s-9.971-1.2-17.295-1.764c-7.324-.564-16.789.542-16.789.542l-.115.027c1.782.204 8.875 1.066 12.927 2.281 4.658 1.398 8.695 4.504 8.695 4.504l-36.49 15.062-12.732-6.988 2.148-1.241 2.686 1.232.108-5.807.025-1.328-2.294 2.516-.978 1.071-4.795 2.136-1.095.488-4.969-.155-26.727 12.981-.057.217 25.388-8.783 24.456 7.252 13.313-2.986-.036.015.541-.128h.002l45.885-10.875-17.702-.952z"/><path opacity=".6" fill="#fff" enable-background="new" d="M15.516 838.74l27.173-13.198 15.231 9.164-16.9-4.739-25.504 8.773"/><path opacity=".6" fill="#fff" enable-background="new" d="M55.723 828.673l2.187 1.164 16.759-16.77-4.192 1.398zM84.468 812.493l-19.885 21.123 14.983-6.184 12.086-13.608z"/><path fill="#D4F9FD" d="M47.658 825.697"/><path opacity=".6" fill="#fff" enable-background="new" d="M75.828 835.191l46.429-11.003-17.701-.954z"/><g fill="#eee"><path d="M194.62 835.288s0 .625-.023.841c-.456 10.489-.841 14.017-1.752 15.122-.434.6-.889.814-1.562.863-.601.071-1.584.071-2.615 0-.024-.479-.168-1.176-.434-1.633 1.032.096 1.97.12 2.4.12.359 0 .601-.071.815-.407.696-.793 1.129-4.152 1.536-13.346h-3.553c-.288 6-1.151 12.049-4.224 15.77-.288-.336-.842-.815-1.272-1.031 2.88-3.359 3.672-9.098 3.938-14.738h-3.408v-1.56h3.456c.023-1.488.048-2.952.048-4.345h1.584c0 1.393-.023 2.856-.071 4.345l5.137-.001zm10.057-1.367v18.338h-1.656v-1.607h-4.921v1.775h-1.584v-18.506h8.161zm-1.656 15.193v-13.657h-4.921v13.657h4.921zM229.384 838.732c-.979 3.416-2.38 6.748-4.199 9.632.812 2.549 1.933 4.004 3.221 4.004.699 0 1.008-1.26 1.176-4.592.363.393 1.008.784 1.456.924-.309 4.172-.925 5.461-2.801 5.461s-3.275-1.457-4.313-4.033c-1.231 1.652-2.632 3.138-4.172 4.313-.279-.393-.868-.952-1.315-1.26 1.792-1.316 3.416-3.053 4.788-5.04-.841-2.968-1.372-6.888-1.651-11.341h-15.736v-1.539h6.86v-2.521h-5.404v-1.54h5.404v-2.296h1.792v2.296h4.982v1.54h-4.982v2.521h7.027c-.111-2.016-.169-4.145-.169-6.301h1.82c0 2.213.028 4.34.112 6.301h7.447v1.539h-7.393c.225 3.613.645 6.748 1.204 9.269 1.344-2.407 2.437-5.096 3.191-7.812l1.655.475zm-13.944 11.816v3.752h-1.765v-3.584c-2.743.309-5.319.561-7.336.783l-.195-1.734c1.987-.168 4.619-.393 7.531-.674v-2.938h-3.695c-1.177 0-1.987.168-2.239.392-.084-.392-.336-1.26-.562-1.735.394-.084.813-.644 1.261-1.399.225-.365.645-1.177 1.12-2.185h-3.305v-1.54h4.004c.364-.896.757-1.848 1.036-2.771l1.82.476c-.28.784-.588 1.54-.952 2.296h8.428v1.54h-9.128c-.615 1.204-1.231 2.323-1.876 3.304h4.088v-2.38h1.765v2.38h4.536v1.624h-4.536v2.771l5.181-.476v1.54l-5.181.558zm12.796-16.52c-.645-1.035-2.128-2.548-3.443-3.584l1.315-.896c1.288.98 2.828 2.437 3.5 3.473l-1.372 1.007zM250.398 836.26v9.262h-1.359v-1.16h-5.94v6.521h-1.381v-6.521h-5.922v1.26h-1.319v-9.36h7.241v-3.581h1.381v3.581l7.299-.002zm-8.681 6.781v-5.481h-5.922v5.481h5.922zm7.322 0v-5.481h-5.94v5.481h5.94z"/></g><circle fill="#353336" cx="39.661" cy="848.426" r="12.189"/><circle fill="#F4F4F4" cx="39.661" cy="848.426" r="7.298"/><circle fill="#353336" cx="43.543" cy="848.459" r="1.63"/><circle fill="#353336" cx="35.779" cy="848.459" r="1.63"/><circle fill="#353336" cx="39.661" cy="852.308" r="1.63"/><circle fill="#353336" cx="39.661" cy="844.545" r="1.63"/><circle fill="#353336" cx="114.427" cy="848.426" r="12.189"/><circle fill="#F4F4F4" cx="114.427" cy="848.426" r="7.298"/><g fill="#353336"><circle cx="118.309" cy="848.459" r="1.63"/><circle cx="110.544" cy="848.459" r="1.63"/></g><circle fill="#353336" cx="114.427" cy="852.308" r="1.63"/><circle fill="#353336" cx="114.427" cy="844.545" r="1.63"/><circle opacity=".45" fill="#D7D7D7" enable-background="new" cx="140.706" cy="930.459" r="2.69"/><circle opacity=".1" fill="#D7D7D7" enable-background="new" cx="152.549" cy="925.833" r="3.858"/><circle fill="#D7D7D7" cx="164.391" cy="921.474" r="4.97"/><ellipse fill="#D7D7D7" cx="78.94" cy="940.707" rx="51.477" ry="1.231"/><path opacity=".6" fill="#fff" enable-background="new" d="M96.271 901.331l2.086-2.665h-2.086z"/><path opacity=".1" enable-background="new" d="M99.281 913.646l-24.222 6.833 18.323-2.64v12.577h-65.993l-3.416-7.453-6.056.775-.207 1.713 5.485 12.729h97.204l11.801-6.211.841-.987-36.709.677z"/><path fill="#FCC23F" d="M142.448 899.981l-28.881-5.59s-9.971-1.2-17.295-1.764c-7.324-.564-16.789.542-16.789.542l-.114.028c1.781.203 8.875 1.065 12.927 2.28 4.658 1.397 8.694 4.503 8.694 4.503l-36.489 15.063-12.733-6.987 4.834-.008.109-5.806.024-1.328-2.294 2.515-.977 1.071-4.795 2.136-1.096.488-4.969-.155-27.173 13.199 2.277 5.283.207-1.711 6.056-.776 3.416 7.453h65.993v-12.577l-18.323 2.64 24.223-6.832-2.949 18.013 36.709-.677 6.302-7.397-2.597-8.834 5.703-14.772zm-63.508 15.684l28.727-11.956 17.702.953-46.429 11.003z"/><path fill="#FFAB24" d="M125.368 908.833l17.08-8.852-5.702 14.769 2.597 8.834z"/><path fill="#FFDE39" d="M140.642 904.662l-8.441 5.567 4.545 4.521z"/><path opacity=".1" enable-background="new" d="M78.94 893.149l.428.049.114-.028-.542-.021z"/><path d="M79.562 893.149l-.078.021"/><path fill="#C1F6FD" d="M51.767 908.057l12.733 6.987 36.489-15.063s-4.036-3.104-8.694-4.503c-4.051-1.216-11.145-2.077-12.927-2.28-7.358 1.633-16.315 5.779-22.657 9.044l-.109 5.806-4.835.009z"/><path fill="#BEF7FE" d="M54.441 903.429c-3.486 1.855-5.769 3.206-5.771 3.208l4.795-2.136.976-1.072z"/><path fill="#FFAB24" d="M99.281 913.646l-24.222 6.833 18.323-2.64v12.577h-65.993l-3.416-7.453-7.03.711.767 1.777 5.485 12.729h97.204l12.642-7.198-36.455-.877z"/><circle fill="#353336" cx="39.578" cy="927.854" r="12.189"/><circle fill="#F4F4F4" cx="39.578" cy="927.854" r="7.298"/><circle fill="#353336" cx="43.46" cy="927.887" r="1.63"/><circle fill="#353336" cx="35.695" cy="927.887" r="1.63"/><circle fill="#353336" cx="39.578" cy="931.736" r="1.63"/><circle fill="#353336" cx="39.578" cy="923.972" r="1.63"/><circle fill="#353336" cx="114.344" cy="927.854" r="12.189"/><circle fill="#F4F4F4" cx="114.344" cy="927.854" r="7.298"/><g fill="#353336"><circle cx="118.226" cy="927.887" r="1.63"/><circle cx="110.462" cy="927.887" r="1.63"/></g><circle fill="#353336" cx="114.344" cy="931.736" r="1.63"/><circle fill="#353336" cx="114.344" cy="923.972" r="1.63"/><path fill="#FFD252" d="M107.667 903.709l17.701.953 16.691-4.441-.569-.424-27.924-5.405s-9.971-1.2-17.295-1.764c-7.324-.564-16.789.542-16.789.542l-.114.027c1.781.204 8.875 1.066 12.927 2.281 4.658 1.398 8.694 4.503 8.694 4.503l-36.489 15.063-12.733-6.988 2.149-1.241 2.685 1.232.109-5.806.024-1.328-2.294 2.515-.977 1.071-4.795 2.136-1.096.488-4.969-.155-26.726 12.982-.058.216 25.389-8.783 24.456 7.252 13.312-2.987-.036.016.541-.128h.002l45.885-10.874-17.701-.953z"/><path opacity=".6" fill="#fff" enable-background="new" d="M15.433 920.168l27.172-13.198 15.233 9.165-16.901-4.74-25.504 8.773"/><path opacity=".6" fill="#fff" enable-background="new" d="M55.639 910.101l2.188 1.164 16.759-16.769-4.192 1.397zM84.385 893.921l-19.885 21.123 14.982-6.185 12.086-13.607z"/><path fill="#D4F9FD" d="M47.575 907.125"/><path opacity=".6" fill="#fff" enable-background="new" d="M75.746 916.619l46.428-11.003-17.702-.954z"/><g fill="#eee"><path d="M194.601 916.381s0 .521-.021.7c-.38 8.742-.699 11.683-1.461 12.603-.358.5-.738.682-1.3.722-.5.06-1.32.06-2.181 0-.021-.4-.141-.98-.359-1.36.859.08 1.641.1 2 .1.3 0 .5-.06.68-.34.58-.66.94-3.461 1.28-11.123h-2.96c-.24 5.001-.961 10.042-3.521 13.144-.239-.28-.699-.682-1.061-.86 2.4-2.801 3.062-7.581 3.28-12.283h-2.841v-1.3h2.881c.021-1.24.04-2.46.04-3.621h1.32c0 1.16-.021 2.38-.061 3.621l4.285-.003zm8.381-1.14v15.283h-1.38v-1.341h-4.102v1.48h-1.319v-15.423h6.801zm-1.379 12.663v-11.383h-4.102v11.383h4.102zM227.808 919.271c-.841 2.93-2.039 5.785-3.601 8.257.696 2.186 1.656 3.434 2.76 3.434.602 0 .864-1.08 1.01-3.938.312.336.863.672 1.247.792-.265 3.576-.792 4.682-2.399 4.682-1.608 0-2.81-1.248-3.696-3.457-1.056 1.417-2.256 2.688-3.576 3.696-.239-.337-.744-.815-1.128-1.081 1.536-1.128 2.929-2.615 4.104-4.319-.722-2.544-1.177-5.904-1.417-9.721h-13.488v-1.319h5.88v-2.16h-4.632v-1.32h4.632v-1.968h1.536v1.968h4.272v1.32h-4.272v2.16h6.024c-.097-1.729-.145-3.552-.145-5.4h1.561c0 1.896.023 3.72.097 5.4h6.384v1.319h-6.336c.191 3.097.552 5.785 1.032 7.945 1.15-2.063 2.088-4.368 2.735-6.697l1.416.407zm-11.953 10.129v3.218h-1.514v-3.072c-2.352.264-4.56.479-6.288.672l-.168-1.488c1.704-.145 3.96-.336 6.456-.576v-2.521h-3.168c-1.008 0-1.704.145-1.92.336-.072-.336-.288-1.08-.479-1.487.336-.071.695-.552 1.08-1.199.191-.313.553-1.009.96-1.872h-2.832v-1.32h3.433c.312-.769.647-1.584.888-2.376l1.562.408c-.24.672-.504 1.319-.816 1.968h7.226v1.32h-7.824c-.528 1.031-1.058 1.991-1.608 2.831h3.504v-2.039h1.514v2.039h3.888v1.393h-3.888v2.377l4.439-.408v1.32l-4.445.476zm10.969-14.161c-.552-.888-1.824-2.184-2.952-3.071l1.128-.769c1.104.84 2.424 2.088 3 2.977l-1.176.863zM253.568 914.065v12.964h-1.903v-1.624h-8.316v9.128h-1.932v-9.128h-8.288v1.764h-1.849v-13.104h10.137v-5.013h1.932v5.013h10.219zm-12.152 9.493v-7.673h-8.288v7.673h8.288zm10.248 0v-7.673h-8.316v7.673h8.316z"/></g></svg>