<svg xmlns="http://www.w3.org/2000/svg" width="60" height="1200"><path d="M30 0a30 30 0 0 1 9.271 1.468l-9.271 28.532z" fill="#fe8504"/><path d="M30 60a30 30 0 0 1 17.634 5.729l-17.634 24.271z" fill="#fe8504"/><path d="M30 120a30 30 0 0 1 24.271 12.366l-24.271 17.634z" fill="#fe8504"/><path d="M30 180a30 30 0 0 1 28.532 20.729l-28.532 9.271z" fill="#fe8504"/><path d="M30 240a30 30 0 0 1 30 30h-30z" fill="#fe8504"/><path d="M30 300a30 30 0 0 1 28.532 39.271l-28.532-9.271z" fill="#fe8504"/><path d="M30 360a30 30 0 0 1 24.271 47.634l-24.271-17.634z" fill="#fe8504"/><path d="M30 420a30 30 0 0 1 17.634 54.271l-17.634-24.271z" fill="#fe8504"/><path d="M30 480a30 30 0 0 1 9.271 58.532l-9.271-28.532z" fill="#fe8504"/><path d="M30 540a30 30 0 1 1 0 60v-30z" fill="#fe8504"/><path d="M30 600a30 30 0 1 1-9.271 58.532l9.271-28.532z" fill="#fe8504"/><path d="M30 660a30 30 0 1 1-17.634 54.271l17.634-24.271z" fill="#fe8504"/><path d="M30 720a30 30 0 1 1-24.271 47.634l24.271-17.634z" fill="#fe8504"/><path d="M30 780a30 30 0 1 1-28.532 39.271l28.532-9.271z" fill="#fe8504"/><path d="M30 840a30 30 0 1 1-30 30h30z" fill="#fe8504"/><path d="M30 900a30 30 0 1 1-28.532 20.729l28.532 9.271z" fill="#fe8504"/><path d="M30 960a30 30 0 1 1-24.271 12.366l24.271 17.634z" fill="#fe8504"/><path d="M30 1020a30 30 0 1 1-17.634 5.729l17.634 24.271z" fill="#fe8504"/><path d="M30 1080a30 30 0 1 1-9.271 1.468l9.271 28.532z" fill="#fe8504"/><circle cx="30" cy="1170" r="30" fill="#fe8504"/></svg>